<svg width="25" height="25" viewBox="0 0 25 25" fill="none" xmlns="http://www.w3.org/2000/svg">
<path d="M21.055 9.84741C21.845 10.6375 21.845 11.9184 21.055 12.7084C20.265 13.4984 18.9841 13.4984 18.1941 12.7084C17.404 11.9184 17.404 10.6375 18.1941 9.84741C18.9841 9.05738 20.265 9.05738 21.055 9.84741Z" stroke="#2C997F" stroke-opacity="0.5" stroke-width="1.5" stroke-linecap="round" stroke-linejoin="round"/>
<path d="M14.4661 6.2356C15.6826 7.45208 15.6826 9.42439 14.4661 10.6409C13.2496 11.8574 11.2773 11.8574 10.0608 10.6409C8.84432 9.4244 8.84432 7.45209 10.0608 6.2356C11.2773 5.01912 13.2496 5.01912 14.4661 6.2356Z" stroke="#2C997F" stroke-width="1.5" stroke-linecap="round" stroke-linejoin="round"/>
<path d="M6.33238 9.84741C7.12241 10.6375 7.12241 11.9184 6.33238 12.7084C5.54235 13.4984 4.26146 13.4984 3.47143 12.7084C2.6814 11.9184 2.6814 10.6375 3.47143 9.84741C4.26146 9.05738 5.54235 9.05738 6.33238 9.84741Z" stroke="#2C997F" stroke-opacity="0.5" stroke-width="1.5" stroke-linecap="round" stroke-linejoin="round"/>
<path d="M23.2639 19.3235V18.2275C23.2639 16.8465 22.1449 15.7275 20.7639 15.7275H19.9629" stroke="#2C997F" stroke-opacity="0.5" stroke-width="1.5" stroke-linecap="round" stroke-linejoin="round"/>
<path d="M1.26367 19.3235V18.2275C1.26367 16.8465 2.38267 15.7275 3.76367 15.7275H4.56467" stroke="#2C997F" stroke-opacity="0.5" stroke-width="1.5" stroke-linecap="round" stroke-linejoin="round"/>
<path d="M17.6028 19.3237V17.7227C17.6028 15.7897 16.0358 14.2227 14.1028 14.2227H10.4238C8.49083 14.2227 6.92383 15.7897 6.92383 17.7227V19.3237" stroke="#2C997F" stroke-width="1.5" stroke-linecap="round" stroke-linejoin="round"/>
</svg>
