<svg width="33" height="33" viewBox="0 0 33 33" fill="none" xmlns="http://www.w3.org/2000/svg">
<path d="M28.3839 13.5099C29.4372 14.5633 29.4372 16.2711 28.3839 17.3245C27.3305 18.3779 25.6226 18.3779 24.5693 17.3245C23.5159 16.2711 23.5159 14.5633 24.5693 13.5099C25.6226 12.4565 27.3305 12.4565 28.3839 13.5099Z" stroke="white" stroke-opacity="0.5" stroke-width="1.5" stroke-linecap="round" stroke-linejoin="round"/>
<path d="M19.5961 8.695C21.2181 10.317 21.2181 12.9467 19.5961 14.5687C17.9741 16.1907 15.3444 16.1907 13.7224 14.5687C12.1004 12.9467 12.1004 10.317 13.7224 8.695C15.3444 7.07302 17.9741 7.07302 19.5961 8.695Z" stroke="white" stroke-width="1.5" stroke-linecap="round" stroke-linejoin="round"/>
<path d="M8.75112 13.5099C9.80449 14.5633 9.80449 16.2711 8.75112 17.3245C7.69774 18.3779 5.98989 18.3779 4.93652 17.3245C3.88314 16.2711 3.88314 14.5633 4.93652 13.5099C5.98989 12.4565 7.69774 12.4565 8.75112 13.5099Z" stroke="white" stroke-opacity="0.5" stroke-width="1.5" stroke-linecap="round" stroke-linejoin="round"/>
<path d="M31.3251 26.1451V24.6838C31.3251 22.8425 29.8331 21.3505 27.9918 21.3505H26.9238" stroke="white" stroke-opacity="0.5" stroke-width="1.5" stroke-linecap="round" stroke-linejoin="round"/>
<path d="M1.99219 26.1451V24.6838C1.99219 22.8425 3.48419 21.3505 5.32553 21.3505H6.39353" stroke="white" stroke-opacity="0.5" stroke-width="1.5" stroke-linecap="round" stroke-linejoin="round"/>
<path d="M23.7797 26.1452V24.0105C23.7797 21.4332 21.6904 19.3439 19.113 19.3439H14.2077C11.6304 19.3439 9.54102 21.4332 9.54102 24.0105V26.1452" stroke="white" stroke-width="1.5" stroke-linecap="round" stroke-linejoin="round"/>
</svg>
