<svg width="28" height="29" viewBox="0 0 28 29" fill="none" xmlns="http://www.w3.org/2000/svg">
<path d="M19.8363 11.3104V8.97607H17.502" stroke="white" stroke-width="1.5" stroke-linecap="round" stroke-linejoin="round"/>
<path d="M11.666 11.6442L13.167 10.1432L16.3346 12.4775L19.8361 8.97607" stroke="white" stroke-width="1.5" stroke-linecap="round" stroke-linejoin="round"/>
<path d="M16.334 16.5626L19.8354 16.5628" stroke="white" stroke-width="1.5" stroke-linecap="round" stroke-linejoin="round"/>
<path d="M16.334 20.0641L19.8354 20.0642" stroke="white" stroke-width="1.5" stroke-linecap="round" stroke-linejoin="round"/>
<path d="M3.49609 16.6793V24.616C3.49742 25.6471 5.58629 26.4834 8.1647 26.4834C10.7431 26.4834 12.832 25.6471 12.8333 24.616V16.6793M3.49609 16.6793C3.49609 17.7104 5.58594 18.5467 8.16435 18.5467C10.7427 18.5467 12.8333 17.7104 12.8333 16.6793M3.49609 16.6793C3.49609 15.6469 5.5886 14.8118 8.16568 14.8118C10.7427 14.8118 12.832 15.6482 12.8333 16.6793M3.49706 20.6476C3.49706 21.6787 5.58594 22.515 8.16434 22.515C10.7428 22.515 12.833 21.6787 12.833 20.6476" stroke="white" stroke-opacity="0.5" stroke-width="1.5" stroke-linecap="round" stroke-linejoin="round"/>
<path d="M5.83008 11.3104V6.6418C5.83008 5.3526 6.87518 4.3075 8.16438 4.3075H22.1702C23.4594 4.3075 24.5045 5.3526 24.5045 6.6418V21.8148C24.5045 23.104 23.4594 24.1491 22.1702 24.1491H16.3345" stroke="white" stroke-width="1.5" stroke-linecap="round" stroke-linejoin="round"/>
</svg>
