<svg width="25" height="25" viewBox="0 0 25 25" fill="none" xmlns="http://www.w3.org/2000/svg">
<path d="M7.26367 12.3047H8.26367" stroke="white" stroke-width="1.5" stroke-linecap="round" stroke-linejoin="round"/>
<path d="M7.26367 16.0547H8.26367" stroke="white" stroke-width="1.5" stroke-linecap="round" stroke-linejoin="round"/>
<path d="M20.2637 9.55469V5.1146C20.2637 4.73655 20.0505 4.39083 19.7127 4.22108L18.5985 3.66117C18.318 3.52021 17.9876 3.51915 17.7062 3.6583L16.0075 4.4983L14.3424 3.66182C14.0611 3.5205 13.7296 3.5199 13.4478 3.6602L11.7637 4.49863L10.0795 3.6602C9.79769 3.5199 9.46626 3.5205 9.18495 3.66182L7.51981 4.4983L5.82113 3.6583C5.53974 3.51915 5.20933 3.52021 4.92884 3.66117L3.81467 4.22108C3.47687 4.39083 3.26368 4.73655 3.26367 5.1146V19.5547C3.26367 20.6593 4.1591 21.5547 5.26367 21.5547H8.26367" stroke="white" stroke-width="1.5" stroke-linecap="round" stroke-linejoin="round"/>
<path d="M11.2637 16.0547H22.2637M13.5137 21.5547H20.0137C21.2563 21.5547 22.2637 20.5474 22.2637 19.3047V14.8047C22.2637 13.5621 21.2563 12.5547 20.0137 12.5547H13.5137C12.271 12.5547 11.2637 13.5621 11.2637 14.8047V19.3047C11.2637 19.9015 11.5007 20.4738 11.9227 20.8957C12.3446 21.3177 12.9169 21.5547 13.5137 21.5547Z" stroke="white" stroke-opacity="0.5" stroke-width="1.5" stroke-linecap="round" stroke-linejoin="round"/>
<path d="M7.26367 8.55469H16.2637" stroke="white" stroke-width="1.5" stroke-linecap="round" stroke-linejoin="round"/>
</svg>
