<svg width="24" height="24" viewBox="0 0 24 24" fill="none" xmlns="http://www.w3.org/2000/svg">
<path fill-rule="evenodd" clip-rule="evenodd" d="M18.332 6.25C17.9178 6.25 17.582 6.58579 17.582 7C17.582 7.41421 17.9178 7.75 18.332 7.75H19.1891L14.5097 12.4286L14.509 12.4293C14.4124 12.5262 14.2548 12.5272 14.1563 12.4287L12.016 10.2883L12.0156 10.2879C11.3321 9.60318 10.224 9.6043 9.54067 10.2877L4.46967 15.3587C4.17678 15.6516 4.17678 16.1264 4.46967 16.4193C4.76256 16.7122 5.23744 16.7122 5.53033 16.4193L10.6013 11.3483C10.6998 11.2498 10.8574 11.2508 10.954 11.3477L10.9547 11.3483L13.0957 13.4893C13.779 14.1727 14.8871 14.1738 15.5706 13.4891L15.571 13.4887L20.249 8.81141V9.667C20.249 10.0812 20.5848 10.417 20.999 10.417C21.4132 10.417 21.749 10.0812 21.749 9.667V7.03824C21.7594 6.83378 21.6865 6.62589 21.5304 6.46971C21.3838 6.32315 21.1917 6.24991 20.9997 6.25C20.9995 6.25 20.9992 6.25 20.999 6.25H18.332Z" fill="white" fill-opacity="0.5"/>
<path d="M21.0008 20.9287H1.92578V3.2207" stroke="white" stroke-width="1.5" stroke-linecap="round" stroke-linejoin="round"/>
</svg>
