<svg width="25" height="25" viewBox="0 0 25 25" fill="none" xmlns="http://www.w3.org/2000/svg">
<path d="M21.5118 15.5569V14.5565C21.5265 13.7561 21.215 12.9841 20.649 12.4181C20.0829 11.852 19.311 11.5405 18.5106 11.5552H16.5098" stroke="white" stroke-width="1.5" stroke-linecap="round" stroke-linejoin="round"/>
<path d="M12.5082 15.5569V14.5565C12.5228 13.7561 12.2114 12.9841 11.6453 12.4181C11.0792 11.852 10.3073 11.5405 9.5069 11.5552H6.50565C5.70526 11.5405 4.93332 11.852 4.36726 12.4181C3.8012 12.9841 3.48972 13.7561 3.5044 14.5565V15.5569" stroke="white" stroke-width="1.5" stroke-linecap="round" stroke-linejoin="round"/>
<path d="M8.00495 8.55286C9.38623 8.55286 10.506 7.43311 10.506 6.05182C10.506 4.67053 9.38623 3.55078 8.00495 3.55078C6.62366 3.55078 5.50391 4.67053 5.50391 6.05182C5.50391 7.43311 6.62366 8.55286 8.00495 8.55286Z" stroke="white" stroke-width="1.5" stroke-linecap="round" stroke-linejoin="round"/>
<path d="M17.5086 8.55244C18.6137 8.55244 19.5095 7.65664 19.5095 6.55161C19.5095 5.44658 18.6137 4.55078 17.5086 4.55078C16.4036 4.55078 15.5078 5.44658 15.5078 6.55161C15.5078 7.65664 16.4036 8.55244 17.5086 8.55244Z" stroke="white" stroke-width="1.5" stroke-linecap="round" stroke-linejoin="round"/>
<path d="M18.51 20.6626V18.1055H15.917M6.50586 18.1055C7.66475 20.2339 9.89431 21.5585 12.3177 21.5585C14.7411 21.5585 16.9707 20.2339 18.1296 18.1055" stroke="white" stroke-opacity="0.5" stroke-width="1.5" stroke-linecap="round" stroke-linejoin="round"/>
</svg>
