<svg width="33" height="33" viewBox="0 0 33 33" fill="none" xmlns="http://www.w3.org/2000/svg">
<path fill-rule="evenodd" clip-rule="evenodd" d="M8.33008 28.8119H5.66341C4.92741 28.8119 4.33008 28.2146 4.33008 27.4786V19.4786C4.33008 18.7426 4.92741 18.1453 5.66341 18.1453H8.33008C9.06608 18.1453 9.66341 18.7426 9.66341 19.4786V27.4786C9.66341 28.2146 9.06608 28.8119 8.33008 28.8119Z" stroke="white" stroke-width="1.5" stroke-linecap="round" stroke-linejoin="round"/>
<path d="M17.6641 23.4786H20.7748C21.3521 23.4786 21.9134 23.2919 22.3748 22.9452L25.5961 20.5292C26.4001 19.9266 27.5254 20.0066 28.2361 20.7172C29.0254 21.5066 29.0254 22.7852 28.2361 23.5732L25.4721 26.3372C24.7281 27.0812 23.7788 27.5892 22.7468 27.7959L18.8401 28.5772C18.0654 28.7319 17.2668 28.7132 16.5001 28.5212L12.9668 27.6386C12.5441 27.5319 12.1108 27.4786 11.6748 27.4786H9.66406" stroke="white" stroke-width="1.5" stroke-linecap="round" stroke-linejoin="round"/>
<path d="M17.6641 23.4786H19.6441C20.7601 23.4786 21.6641 22.5746 21.6641 21.4586V21.0546C21.6641 20.1279 21.0334 19.3199 20.1348 19.0959L17.0788 18.3319C16.5814 18.2079 16.0721 18.1453 15.5601 18.1453C14.3241 18.1453 13.1148 18.5106 12.0868 19.1973L9.66406 20.8119" stroke="white" stroke-width="1.5" stroke-linecap="round" stroke-linejoin="round"/>
<path fill-rule="evenodd" clip-rule="evenodd" d="M14.5527 14.1452H26.1087C27.3354 14.1452 28.3301 13.1505 28.3301 11.9225V5.70118C28.3301 4.47318 27.3354 3.47852 26.1074 3.47852H14.5514C13.3247 3.47852 12.3301 4.47318 12.3301 5.70118V11.9238C12.3301 13.1505 13.3247 14.1452 14.5527 14.1452Z" stroke="white" stroke-opacity="0.5" stroke-width="1.5" stroke-linecap="round" stroke-linejoin="round"/>
<path d="M21.7454 7.39726C22.5268 8.17859 22.5268 9.44659 21.7454 10.2266C20.9641 11.0066 19.6961 11.0079 18.9161 10.2266C18.1348 9.44526 18.1348 8.17726 18.9161 7.39726C19.6974 6.61726 20.9641 6.61726 21.7454 7.39726Z" stroke="white" stroke-opacity="0.5" stroke-width="1.5" stroke-linecap="round" stroke-linejoin="round"/>
</svg>
