<svg width="24" height="24" viewBox="0 0 24 24" fill="none" xmlns="http://www.w3.org/2000/svg">
<path d="M13.4137 7.58575C14.1947 8.36675 14.1947 9.63275 13.4137 10.4137C12.6327 11.1947 11.3668 11.1947 10.5857 10.4137C9.80475 9.63275 9.80475 8.36675 10.5857 7.58575C11.3668 6.80475 12.6327 6.80475 13.4137 7.58575" stroke="white" stroke-width="1.5" stroke-linecap="round" stroke-linejoin="round"/>
<path d="M6.5 7V11" stroke="white" stroke-width="1.5" stroke-linecap="round" stroke-linejoin="round"/>
<path d="M17.5 7V11" stroke="white" stroke-width="1.5" stroke-linecap="round" stroke-linejoin="round"/>
<path d="M12 21V16M12 16L10 18M12 16L14 18" stroke="white" stroke-opacity="0.5" stroke-width="1.5" stroke-linecap="round" stroke-linejoin="round"/>
<path d="M8 15H5C3.895 15 3 14.105 3 13V5C3 3.895 3.895 3 5 3H19C20.105 3 21 3.895 21 5V13C21 14.105 20.105 15 19 15H16" stroke="white" stroke-width="1.5" stroke-linecap="round" stroke-linejoin="round"/>
</svg>
