<svg width="33" height="33" viewBox="0 0 33 33" fill="none" xmlns="http://www.w3.org/2000/svg">
<path d="M17.5849 14.9967L8.1582 24.4234" stroke="#F2F2F2" stroke-width="1.5" stroke-linecap="round" stroke-linejoin="round"/>
<path d="M9.17402 17.582L4.55668 16.4914C4.04868 16.3714 3.87002 15.7407 4.23802 15.3714L7.91001 11.6994C8.15668 11.4527 8.49135 11.3114 8.84201 11.3087L12.982 11.2727" stroke="white" stroke-width="1.5" stroke-linecap="round" stroke-linejoin="round"/>
<path fill-rule="evenodd" clip-rule="evenodd" d="M26.8342 12.2166L27.9115 7.03262C28.2048 5.62195 26.9568 4.37395 25.5462 4.66728L20.3622 5.74462C18.8355 6.06195 17.4355 6.81795 16.3342 7.92062L12.0808 12.1726C10.4582 13.7953 9.40221 15.8993 9.06888 18.17L9.05421 18.2673C8.84354 19.7166 9.32888 21.1793 10.3635 22.2153C11.3982 23.25 12.8622 23.7353 14.3115 23.5233L14.4088 23.5086C16.6795 23.1766 18.7835 22.1193 20.4062 20.4966L24.6582 16.2446C25.7608 15.1433 26.5168 13.7433 26.8342 12.2166Z" stroke="white" stroke-width="1.5" stroke-linecap="round" stroke-linejoin="round"/>
<path d="M18.1973 6.53528C21.2786 8.63661 23.944 11.3019 26.0453 14.3833" stroke="white" stroke-width="1.5" stroke-linecap="round" stroke-linejoin="round"/>
<path d="M14.998 23.406L16.0886 28.0234C16.2086 28.5314 16.8393 28.71 17.2086 28.342L20.8806 24.67C21.1273 24.4234 21.2686 24.0887 21.2713 23.738L21.3073 19.598" stroke="white" stroke-width="1.5" stroke-linecap="round" stroke-linejoin="round"/>
</svg>
