<svg width="32" height="33" viewBox="0 0 32 33" fill="none" xmlns="http://www.w3.org/2000/svg">
<path fill-rule="evenodd" clip-rule="evenodd" d="M26.6667 21.5834H22.0467C21.6013 21.5834 21.184 21.806 20.9373 22.1767L20.396 22.9887C20.1493 23.3594 19.732 23.582 19.2867 23.582H12.7133C12.268 23.582 11.8507 23.3594 11.604 22.9887L11.0627 22.1767C10.8147 21.806 10.3987 21.5834 9.952 21.5834H5.33333C4.59733 21.5834 4 22.1807 4 22.9167V24.25C4 25.7234 5.19333 26.9167 6.66667 26.9167H25.3333C26.8067 26.9167 28 25.7234 28 24.25V22.9167C28 22.1807 27.4027 21.5834 26.6667 21.5834Z" stroke="white" stroke-width="1.5" stroke-linecap="round" stroke-linejoin="round"/>
<path d="M12 17.5834V14.4767" stroke="white" stroke-opacity="0.5" stroke-width="1.5" stroke-linecap="round" stroke-linejoin="round"/>
<path d="M16 17.5834V12.9167" stroke="white" stroke-opacity="0.5" stroke-width="1.5" stroke-linecap="round" stroke-linejoin="round"/>
<path d="M20 17.5834V9.81006" stroke="white" stroke-opacity="0.5" stroke-width="1.5" stroke-linecap="round" stroke-linejoin="round"/>
<path d="M26.6673 21.5834V7.67804C26.6673 6.52071 25.606 5.58337 24.2967 5.58337H7.70464C6.39531 5.58337 5.33398 6.52071 5.33398 7.67804V21.5834" stroke="white" stroke-width="1.5" stroke-linecap="round" stroke-linejoin="round"/>
</svg>
