<svg width="26" height="26" viewBox="0 0 26 26" fill="none" xmlns="http://www.w3.org/2000/svg">
<path fill-rule="evenodd" clip-rule="evenodd" d="M7.57422 11.6601C5.64122 11.6601 4.07422 10.0932 4.07422 8.16016C4.07422 6.22716 5.64122 4.66016 7.57422 4.66016C9.50722 4.66016 11.0743 6.22716 11.0743 8.16016C11.0743 10.0932 9.50722 11.6601 7.57422 11.6601Z" stroke="#89BFB2" stroke-width="1.5" stroke-linecap="round" stroke-linejoin="round"/>
<path fill-rule="evenodd" clip-rule="evenodd" d="M21.0762 22.6611H17.0762C16.5242 22.6611 16.0762 22.2131 16.0762 21.6611V17.6611C16.0762 17.1091 16.5242 16.6611 17.0762 16.6611H21.0762C21.6282 16.6611 22.0762 17.1091 22.0762 17.6611V21.6611C22.0762 22.2131 21.6282 22.6611 21.0762 22.6611Z" stroke="#2C997F" stroke-width="1.5" stroke-linecap="round" stroke-linejoin="round"/>
<path d="M22.0762 8.16016H11.0762" stroke="#89BFB2" stroke-width="1.5" stroke-linecap="round" stroke-linejoin="round"/>
<path d="M19.0762 5.16016L22.0762 8.16016L19.0762 11.1601" stroke="#89BFB2" stroke-width="1.5" stroke-linecap="round" stroke-linejoin="round"/>
<path d="M4.07422 19.6611H16.0743" stroke="#2C997F" stroke-width="1.5" stroke-linecap="round" stroke-linejoin="round"/>
<path d="M7.07422 22.6611L4.07422 19.6611L7.07422 16.6611" stroke="#2C997F" stroke-width="1.5" stroke-linecap="round" stroke-linejoin="round"/>
</svg>
