<svg width="25" height="24" viewBox="0 0 25 24" fill="none" xmlns="http://www.w3.org/2000/svg">
<path d="M3.40234 7.99805H21.4098" stroke="#2C997F" stroke-width="1.5" stroke-linecap="round" stroke-linejoin="round"/>
<path d="M14.4062 21.0039V16.502" stroke="#89BFB2" stroke-width="1.5" stroke-linecap="round" stroke-linejoin="round"/>
<path d="M17.4082 21.0039V16.502" stroke="#89BFB2" stroke-width="1.5" stroke-linecap="round" stroke-linejoin="round"/>
<path d="M20.4082 21.0039V16.502" stroke="#89BFB2" stroke-width="1.5" stroke-linecap="round" stroke-linejoin="round"/>
<path d="M13.4062 21.0039H21.4096" stroke="#89BFB2" stroke-width="1.5" stroke-linecap="round" stroke-linejoin="round"/>
<path fill-rule="evenodd" clip-rule="evenodd" d="M13.4062 14.6507V16.5015H21.4096V14.6507L17.4079 13L13.4062 14.6507Z" stroke="#89BFB2" stroke-width="1.5" stroke-linecap="round" stroke-linejoin="round"/>
<path d="M11.2726 5.49219L11.2676 5.49719L11.2726 5.50219L11.2776 5.49719L11.2726 5.49219Z" stroke="#2C997F" stroke-width="1.5" stroke-linecap="round" stroke-linejoin="round"/>
<path d="M8.73157 5.49219L8.72656 5.49719L8.73157 5.50219L8.73657 5.49719L8.73157 5.49219Z" stroke="#2C997F" stroke-width="1.5" stroke-linecap="round" stroke-linejoin="round"/>
<path d="M6.18273 5.4873L6.17773 5.4923L6.18273 5.49731L6.18773 5.4923L6.18273 5.4873Z" stroke="#2C997F" stroke-width="1.5" stroke-linecap="round" stroke-linejoin="round"/>
<path d="M10.4053 21.0036H5.40318C4.87267 21.0036 4.36383 20.7932 3.9886 20.4181C3.61337 20.0431 3.40234 19.5344 3.40234 19.0039V4.99692C3.40234 4.46641 3.6128 3.95757 3.98782 3.58234C4.36284 3.20711 4.87157 2.99609 5.40208 2.99609H19.409C19.9395 2.99609 20.4484 3.20654 20.8236 3.58156C21.1988 3.95659 21.4098 4.46531 21.4098 4.99582V10.9994" stroke="#2C997F" stroke-width="1.5" stroke-linecap="round" stroke-linejoin="round"/>
</svg>
