<svg width="25" height="25" viewBox="0 0 25 25" fill="none" xmlns="http://www.w3.org/2000/svg">
<path d="M7.26367 11.5547H11.2637" stroke="white" stroke-width="1.5" stroke-linecap="round" stroke-linejoin="round"/>
<path d="M7.76367 3.55469V6.55469" stroke="white" stroke-width="1.5" stroke-linecap="round" stroke-linejoin="round"/>
<path d="M16.7637 3.55469V6.55469" stroke="white" stroke-width="1.5" stroke-linecap="round" stroke-linejoin="round"/>
<path d="M9.26367 21.5547H6.26367C4.60682 21.5547 3.26367 20.2116 3.26367 18.5547V8.05469C3.26367 6.39784 4.60682 5.05469 6.26367 5.05469H18.2637C19.9205 5.05469 21.2637 6.39784 21.2637 8.05469V11.5547" stroke="white" stroke-width="1.5" stroke-linecap="round" stroke-linejoin="round"/>
<path d="M15.2637 21.5547V18.0547C15.2637 17.7786 15.0398 17.5547 14.7637 17.5547H12.7637C12.4875 17.5547 12.2637 17.7786 12.2637 18.0547V21.5547H15.2637ZM15.2637 21.5547H18.2637M15.2637 21.5547V14.0547C15.2637 13.7786 15.4875 13.5547 15.7637 13.5547H17.7637C18.0398 13.5547 18.2637 13.7786 18.2637 14.0547V21.5547M18.2637 21.5547H21.2637V16.0547C21.2637 15.7786 21.0398 15.5547 20.7637 15.5547H18.7637C18.4875 15.5547 18.2637 15.7786 18.2637 16.0547V21.5547Z" stroke="white" stroke-opacity="0.5" stroke-width="1.5" stroke-linecap="round" stroke-linejoin="round"/>
<path d="M7.26367 15.5547H8.26367" stroke="white" stroke-width="1.5" stroke-linecap="round" stroke-linejoin="round"/>
</svg>
